<svg width="132" height="110" viewBox="0 0 132 110" fill="none" xmlns="http://www.w3.org/2000/svg">
  <defs>
    <pattern id="tnodejsgrid" width="26" height="26" patternUnits="userSpaceOnUse">
      <circle cx="1.5" cy="1.5" r="1.05" fill="#2c3150"/>
      <animateTransform attributeName="patternTransform" type="translate"
        values="0,0;26,26" dur="20s" repeatCount="indefinite"/>
    </pattern>
    <radialGradient id="tnodejso0"><stop offset="0%" stop-color="#8A2BE2" stop-opacity="0.3"/><stop offset="100%" stop-color="#8A2BE2" stop-opacity="0"/></radialGradient><radialGradient id="tnodejso1"><stop offset="0%" stop-color="#00CED1" stop-opacity="0.24"/><stop offset="100%" stop-color="#00CED1" stop-opacity="0"/></radialGradient><radialGradient id="tnodejso2"><stop offset="0%" stop-color="#4169E1" stop-opacity="0.26"/><stop offset="100%" stop-color="#4169E1" stop-opacity="0"/></radialGradient>
    <clipPath id="tnodejsclip"><rect x="0.5" y="0.5" rx="12" width="131" height="109"/></clipPath>
  </defs>
  <g clip-path="url(#tnodejsclip)">
    <rect width="132" height="110" fill="#1a1b27"/>
    <circle cx="24" cy="33" r="55" fill="url(#tnodejso0)"><animate attributeName="cx" values="24;45;3;24" dur="17s" repeatCount="indefinite"/><animate attributeName="cy" values="33;11;55;33" dur="22s" repeatCount="indefinite"/></circle><circle cx="108" cy="73" r="50" fill="url(#tnodejso1)"><animate attributeName="cx" values="108;129;87;108" dur="23s" repeatCount="indefinite"/><animate attributeName="cy" values="73;51;95;73" dur="30s" repeatCount="indefinite"/></circle><circle cx="69" cy="94" r="53" fill="url(#tnodejso2)"><animate attributeName="cx" values="69;90;48;69" dur="29s" repeatCount="indefinite"/><animate attributeName="cy" values="94;72;116;94" dur="38s" repeatCount="indefinite"/></circle>
    <rect width="132" height="110" fill="url(#tnodejsgrid)"/>
  </g>
  <rect x="0.75" y="0.75" rx="12" width="130.5" height="108.5" fill="none" stroke="#2f3352"/>
  <g><animateTransform attributeName="transform" type="translate" values="0,0;0,-4.0;0,0" dur="5.8500000000000005s" begin="-2.59s" repeatCount="indefinite"/>
    <g transform="translate(43.0,21.0) scale(0.35938)"><path fill="url(#nodejs-a)" d="M66.958.825a6.07 6.07 0 0 0-6.035 0L11.103 29.76c-1.895 1.072-2.96 3.095-2.96 5.24v57.988c0 2.143 1.183 4.167 2.958 5.24l49.82 28.934a6.07 6.07 0 0 0 6.036 0l49.82-28.935c1.894-1.072 2.958-3.096 2.958-5.24V35c0-2.144-1.183-4.167-2.958-5.24z"/><path fill="url(#nodejs-b)" d="M116.897 29.76 66.841.825A8.161 8.161 0 0 0 65.302.23L9.21 96.798a6.251 6.251 0 0 0 1.657 1.43l50.057 28.934c1.42.833 3.076 1.072 4.615.595l52.66-96.925a3.702 3.702 0 0 0-1.302-1.072z"/><path fill="url(#nodejs-c)" d="M116.898 98.225c1.42-.833 2.485-2.262 2.958-3.81L65.066.108c-1.42-.238-2.959-.119-4.26.715L11.104 29.639l53.606 98.355c.71-.12 1.54-.358 2.25-.715z"/><defs><linearGradient id="nodejs-a" x1="34.513" x2="27.157" y1="15.535" y2="30.448" gradientTransform="translate(-129.242 -73.715) scale(6.18523)" gradientUnits="userSpaceOnUse"><stop stop-color="#3F873F"/><stop offset=".33" stop-color="#3F8B3D"/><stop offset=".637" stop-color="#3E9638"/><stop offset=".934" stop-color="#3DA92E"/><stop offset="1" stop-color="#3DAE2B"/></linearGradient><linearGradient id="nodejs-b" x1="30.009" x2="50.533" y1="23.359" y2="8.288" gradientTransform="translate(-129.242 -73.715) scale(6.18523)" gradientUnits="userSpaceOnUse"><stop offset=".138" stop-color="#3F873F"/><stop offset=".402" stop-color="#52A044"/><stop offset=".713" stop-color="#64B749"/><stop offset=".908" stop-color="#6ABF4B"/></linearGradient><linearGradient id="nodejs-c" x1="21.917" x2="40.555" y1="22.261" y2="22.261" gradientTransform="translate(-129.242 -73.715) scale(6.18523)" gradientUnits="userSpaceOnUse"><stop offset=".092" stop-color="#6ABF4B"/><stop offset=".287" stop-color="#64B749"/><stop offset=".598" stop-color="#52A044"/><stop offset=".862" stop-color="#3F873F"/></linearGradient></defs></g>
  </g>
  <text x="66.0" y="93" text-anchor="middle" font-family="'Segoe UI', Ubuntu, Sans-Serif"
        font-size="12" fill="#a9b1d6">Node.js</text>
  <g clip-path="url(#tnodejsclip)" opacity="0.07"><rect x="-46" y="-110" width="17" height="330" fill="#ffffff" transform="rotate(14)"><animate attributeName="x" values="-66;165" dur="6.5s" repeatCount="indefinite"/></rect></g>
</svg>
