<svg width="254" height="44" viewBox="0 0 254 44"
     fill="none" xmlns="http://www.w3.org/2000/svg">
  <defs>
    <linearGradient id="pemailf" x1="0" y1="0" x2="1" y2="1">
      <stop offset="0%" stop-color="#EA4335" stop-opacity="0.20"/>
      <stop offset="100%" stop-color="#EA4335" stop-opacity="0.06"/>
    </linearGradient>
    <clipPath id="pemailc">
      <rect x="0" y="0" rx="22.0" width="254" height="44"/>
    </clipPath>
  </defs>
  <g clip-path="url(#pemailc)">
    <rect width="254" height="44" fill="#1a1b27"/>
    <rect width="254" height="44" fill="url(#pemailf)"/>
    <rect x="-89" y="-44" width="56" height="132"
          fill="#ffffff" fill-opacity="0.07" transform="rotate(18)">
      <animate attributeName="x" values="-127;317"
               dur="4.5s" repeatCount="indefinite"/>
    </rect>
  </g>
  <rect x="0.75" y="0.75" rx="21.25" width="252.2" height="42.5"
        fill="none" stroke="#EA4335" stroke-opacity="0.55"/>
  <g transform="translate(17.0,13.0) scale(0.7500)"><path d="M24 5.457v13.909c0 .904-.732 1.636-1.636 1.636h-3.819V11.73L12 16.64l-6.545-4.91v9.273H1.636A1.636 1.636 0 0 1 0 19.366V5.457c0-2.023 2.309-3.178 3.927-1.964L5.455 4.64 12 9.548l6.545-4.91 1.528-1.145C21.69 2.28 24 3.434 24 5.457z" fill="#EA4335"/></g>
  <text x="45.0" y="27.1" font-family="'Segoe UI', Ubuntu, Sans-Serif"
        font-size="14.5" font-weight="600" fill="#e6edf3">amitmaurya7071@gmail.com</text>
</svg>
