<svg width="1000" height="232" viewBox="0 0 1000 232"
     xmlns="http://www.w3.org/2000/svg" preserveAspectRatio="none">
  <defs>
    <linearGradient id="hdrg" x1="0" y1="0" x2="1" y2="0">
      <stop offset="0%" stop-color="#8A2BE2"/>
      <stop offset="50%" stop-color="#4169E1"/>
      <stop offset="100%" stop-color="#00CED1"/>
    </linearGradient>
    <pattern id="hdrdots" width="24" height="24" patternUnits="userSpaceOnUse">
      <circle cx="1.5" cy="1.5" r="1" fill="#ffffff" fill-opacity="0.16"/>
      <animateTransform attributeName="patternTransform" type="translate"
        values="0,0;24,24" dur="16s" repeatCount="indefinite"/>
    </pattern>
    <clipPath id="hdrclip"><rect width="1000" height="232"/></clipPath>
  </defs>
  <g clip-path="url(#hdrclip)">
    <rect width="1000" height="232" fill="url(#hdrg)"/>
    <rect width="1000" height="232" fill="url(#hdrdots)"/>
    <g opacity="0.18">
      <g>
        <path d="M0,143.84 q250.0,-16 500.0,0 t500.0,0 V232 H0 Z" fill="#ffffff"/>
        <path d="M0,143.84 q250.0,-16 500.0,0 t500.0,0 V232 H0 Z" fill="#ffffff" transform="translate(1000,0)"/>
        <animateTransform attributeName="transform" type="translate"
          from="0,0" to="-1000,0" dur="14s" repeatCount="indefinite"/>
      </g>
    </g><g opacity="0.3">
      <g>
        <path d="M0,180.96 q250.0,-11 500.0,0 t500.0,0 V232 H0 Z" fill="#ffffff"/>
        <path d="M0,180.96 q250.0,-11 500.0,0 t500.0,0 V232 H0 Z" fill="#ffffff" transform="translate(1000,0)"/>
        <animateTransform attributeName="transform" type="translate"
          from="0,0" to="-1000,0" dur="9.799999999999999s" repeatCount="indefinite"/>
      </g>
    </g>
    <g opacity="0.10">
    <rect x="-300.0" y="-232" width="140.0" height="696"
          fill="#ffffff" transform="rotate(18)">
      <animate attributeName="x" from="-400.0" to="1300.0"
               dur="7s" repeatCount="indefinite"/>
    </rect>
  </g>
  </g>
  <text x="500.0" y="88.16" text-anchor="middle" font-family="'Segoe UI', Ubuntu, Sans-Serif" font-size="46" font-weight="700" fill="#ffffff">Amit Kumar Maurya</text>
  <text x="500.0" y="131.07999999999998" text-anchor="middle" font-family="'Segoe UI', Ubuntu, Sans-Serif" font-size="19" font-weight="400" fill="#ffffff" fill-opacity="0.88">AI Evaluation Specialist &amp; Benchmark Engineer</text>
  <g transform="translate(285.4,165.8) scale(0.7083)"><path d="M20 4H4c-1.1 0-1.99.9-1.99 2L2 18c0 1.1.9 2 2 2h16c1.1 0 2-.9 2-2V6c0-1.1-.9-2-2-2zm0 4l-8 5-8-5V6l8 5 8-5v2z" fill="#ffffff" fill-opacity="0.95"/></g><text x="311.4" y="179.8" font-family="'Segoe UI', Ubuntu, Sans-Serif" font-size="15.0" fill="#ffffff" fill-opacity="0.95">amitmaurya7071@gmail.com</text><g transform="translate(532.6,165.8) scale(0.7083)"><path d="M20.447 20.452h-3.554v-5.569c0-1.328-.027-3.037-1.852-3.037-1.853 0-2.136 1.445-2.136 2.939v5.667H9.351V9h3.414v1.561h.046c.477-.9 1.637-1.85 3.37-1.85 3.601 0 4.267 2.37 4.267 5.455v6.286zM5.337 7.433c-1.144 0-2.063-.926-2.063-2.065 0-1.138.92-2.063 2.063-2.063 1.14 0 2.064.925 2.064 2.063 0 1.139-.925 2.065-2.064 2.065zm1.782 13.019H3.555V9h3.564v11.452zM22.225 0H1.771C.792 0 0 .774 0 1.729v20.542C0 23.227.792 24 1.771 24h20.451C23.2 24 24 23.227 24 22.271V1.729C24 .774 23.2 0 22.225 0z" fill="#ffffff" fill-opacity="0.95"/></g><text x="558.6" y="179.8" font-family="'Segoe UI', Ubuntu, Sans-Serif" font-size="15.0" fill="#ffffff" fill-opacity="0.95">in/amit-kumar-maurya</text>
</svg>
